<?xml version="1.0" standalone="no"?>
<!DOCTYPE svg PUBLIC "-//W3C//DTD SVG 20010904//EN"
 "http://www.w3.org/TR/2001/REC-SVG-20010904/DTD/svg10.dtd">
<svg version="1.0" xmlns="http://www.w3.org/2000/svg"
 width="175.000000pt" height="175.000000pt" viewBox="0 0 175.000000 175.000000"
 preserveAspectRatio="xMidYMid meet">

<g transform="translate(0.000000,175.000000) scale(0.100000,-0.100000)"
fill="#000000" stroke="none">
<path d="M0 875 l0 -875 875 0 875 0 0 875 0 875 -875 0 -875 0 0 -875z m677
553 c-16 -65 -69 -390 -64 -394 3 -3 16 0 29 8 15 8 59 13 123 13 84 0 107 -4
142 -23 69 -36 113 -112 113 -192 0 -49 -37 -253 -56 -313 -26 -79 -82 -140
-171 -184 -74 -36 -82 -38 -194 -42 -164 -4 -256 25 -312 101 -38 51 -34 106
47 563 42 237 79 442 82 458 l6 27 130 0 c130 0 130 0 125 -22z m784 -7 c25
-25 29 -37 29 -83 -1 -79 -29 -134 -82 -158 -77 -35 -181 -20 -208 29 -17 33
-12 128 9 170 26 51 69 70 154 71 63 0 71 -3 98 -29z m-87 -386 c46 -22 76
-78 75 -145 0 -25 -21 -166 -47 -315 l-48 -270 -133 -3 c-123 -2 -132 -1 -127
15 2 10 23 125 46 256 48 272 48 274 -28 263 l-45 -6 7 83 c8 92 19 109 82
133 53 19 167 14 218 -11z"/>
<path d="M592 828 c-25 -13 -24 -10 -51 -163 -19 -107 -19 -111 -1 -129 35
-36 144 -14 170 34 13 24 40 159 40 199 0 45 -33 71 -88 70 -26 0 -57 -5 -70
-11z"/>
</g>
</svg>
